<?xml version="1.0" encoding="UTF-8"?>
<svg xmlns="http://www.w3.org/2000/svg" viewBox="0 0 595.2 841.92" fill="currentColor">
  <path d="M432.1,534.82l23.1,21.24c-8.9,10.9-18.69,20.48-30.03,29.3l-25.37-21.34-38.6-31.92-36.41-28.9-2.98,48.7-2.29,70.14c-13.83.96-27.6.86-41.54.05l-1.94-56.63-2.19-43.56-1.35-18.62c-22.23,17.07-43.62,34.31-64.89,52.3l-35.26,29.83-9.63-8c-7.56-6.28-13.66-13.59-20.39-21.26l27.74-25.56,9.02-8.39,54.34-51.21-36.86-2.33-97.71-1.74c-1.5-14.03-2.44-27.4-2.51-41.4l88.38-1.81c9.12-.08,17.67.46,26.47,3.52l-51.31,15.36,63.22-10.11c6.27,4.44,11.41,9.62,16.62,15.16l10.24,10.89c6.53,6.94,13.47,12.98,22.03,17.26,10.93,5.47,23.05,6.45,34.71,2.78,15.97-5.03,28.29-16.11,40.53-27.11l14.67-13.18c5.49-4.93,11.71-8.35,18.79-10.52,7.64-2.34,15.36-4,23.44-3.96l25.5.11,69.93,1.61-.38,15.16-2.12,26.23-30.09.27-65.8,1.61-37.24,2.12,20.43,19.33,47.71,44.6Z"/>
  <path d="M338.79,376.68c-5.79-5.79-12.64-9.54-20.1-12.3-24.12-8.95-45.8,4.72-63.57,20.83l-20.38,18.47c-12.63,11.45-29.24,14.43-46.19,14.89l-92.23-1.99c.11-13.77.97-27.41,2.51-41.39l85.45-1.27,48.95-2.72-31.3-29.35-59.94-55.5c8.81-10.6,18.37-20.47,29.56-29.21l40.59,33.78,60.41,48.27,2.9-55.03,2.18-64.11c13.97-.86,27.77-.99,41.61.05l2.13,64.52,3.07,54.55,63.11-50.96,37.19-31.04c11.26,8.59,21.19,18.15,29.63,29.2l-22.21,20.58-68.35,64.22,38.95,2.23c31.62,1.35,62.77,1.77,94.37,1.79,1.66,14.02,2.22,27.58,2.59,41.38l-88.29,1.91c-14.2.13-29.24-1.89-40.49-10.3l62.9-10.32.89-.28-4.24-.32h-71.6s-7.53-8.01-7.53-8.01l-12.57-12.58Z"/>
  <path d="M301.13,460.16c-10,2.48-19.65.98-28.12-4.04-10.05-6.37-15.44-17.49-14.89-29.42l21.3-3.55c-1.87-.35-3.79-.23-5.83,0l-15.28.47c2.15-22.78,22.76-42.17,45.64-42.72,19.26-.47,33.81,13.54,34.13,32.76l-53.68,8.79-.24.33,4.84-.23,48.64-1.49c-3.31,18.91-17.65,34.41-36.51,39.1Z"/>
</svg>
